# xmcd
#
# Track frame offsets:
# 150
# 18014
# 34860
# 63069
# 81176
# 92749
# 116049
# 134286
# 147369
# 168345
# 184075
# 201257
#
# Disc length: 2916 seconds
#
#
# Revision: 0
# Processed by: cddbd v1.5.2PL0 Copyright (c) Steve Scherf et al.
# Submitted via: FreeRIP 2.951 
#
DISCID=9d0b620c
DTITLE=Jimmy D - I Been Tryin'
DYEAR=2002
DGENRE=Blues
TTITLE0=Killin' Floor (Chester Burnett)
TTITLE1=Big Legged Woman (Freddie King)
TTITLE2=5 Long Years (James Lane)
TTITLE3=Pack It Up (Freddie King
TTITLE4=Death Letter (Sonhouse)
TTITLE5=All Your Love ( Ottis Rush)
TTITLE6=Don't Bring Me Flowers (Jimmey Davis)
TTITLE7=Evil (Chester Burnett)
TTITLE8=Cakewalk (Unkown)
TTITLE9=Tryin' Blues (Jimmy Aaris)
TTITLE10=Call My Job (Albert King)
TTITLE11=Preachin' Blues (Unknown)
EXTD=Tribute CD to the Blues\nJimmy Davis (Singer,Guitarist]\nRecorded @ Crooked Creek Recording\nMadison, Indiana   812-273-2000
EXTT0=
EXTT1=
EXTT2=
EXTT3=
EXTT4=
EXTT5=
EXTT6=
EXTT7=
EXTT8=
EXTT9=
EXTT10=
EXTT11=
PLAYORDER=
